# xmcd
#
# Track frame offsets:
#       150
#       18034
#       33315
#       50944
#       69367
#       87744
#       106197
#       122001
#       139393
#       157273
#
# Disc length: 2301 seconds
#
# Revision: 0
# Processed by: cddbd v1.5.2PL0 Copyright (c) Steve Scherf et al.
# Submitted via: WaveLab 4.01
#
DISCID=8b08fb0a
DTITLE=Ιωάννα Σεβοπούλου - Της καρδιάς τα μυστικά
DYEAR=2009
DGENRE=Pop
TTITLE0=Ιωάννα Σεβοπούλου - 01 Η αγάπη πάντα συγχωρεί
TTITLE1=Ιωάννα Σεβοπούλου - 02 Πληγή που πονά
TTITLE2=Ιωάννα Σεβοπούλου - 03 Της καρδιάς τα μυστικά
TTITLE3=Ιωάννα Σεβοπούλου - 04 Να με πας
TTITLE4=Ιωάννα Σεβοπούλου - 05 Πριν μου πεις λοιπόν λυπάσαι (Nothing in this world)
TTITLE5=Ιωάννα Σεβοπούλου - 06 Θα μετανιώσεις
TTITLE6=Ιωάννα Σεβοπούλου - 07 Κοίτα με
TTITLE7=Ιωάννα Σεβοπούλου - 08 Σκιές
TTITLE8=Ιωάννα Σεβοπούλου - 09 Είσαι ό,τι έχω
TTITLE9=Ιωάννα Σεβοπούλου - 10 Πάθος
EXTD=
EXTT0=
EXTT1=
EXTT2=
EXTT3=
EXTT4=
EXTT5=
EXTT6=
EXTT7=
EXTT8=
EXTT9=
PLAYORDER=
